<svg width="20" height="20" viewBox="0 0 20 20" fill="none" xmlns="http://www.w3.org/2000/svg">
<g clip-path="url(#clip0_2156_1614)">
<path d="M18.1338 6.87708V1.87708C18.1338 1.54555 18.0021 1.22761 17.7677 0.993192C17.5333 0.758771 17.2153 0.627075 16.8838 0.627075H1.88379C1.55227 0.627075 1.23433 0.758771 0.999906 0.993192C0.765485 1.22761 0.633789 1.54555 0.633789 1.87708V15.6271C0.633789 15.9586 0.765485 16.2765 0.999906 16.511C1.23433 16.7454 1.55227 16.8771 1.88379 16.8771H6.88379" stroke="#D9D5D3" stroke-linecap="round" stroke-linejoin="round"/>
<path d="M0.633789 4.37708H18.1338" stroke="#D9D5D3" stroke-linecap="round" stroke-linejoin="round"/>
<path d="M8.75879 13.1271C8.75879 13.7016 8.87195 14.2705 9.09182 14.8013C9.31168 15.3321 9.63394 15.8144 10.0402 16.2207C10.4465 16.6269 10.9287 16.9492 11.4595 17.169C11.9903 17.3889 12.5593 17.5021 13.1338 17.5021C13.7083 17.5021 14.2772 17.3889 14.808 17.169C15.3388 16.9492 15.8211 16.6269 16.2274 16.2207C16.6336 15.8144 16.9559 15.3321 17.1758 14.8013C17.3956 14.2705 17.5088 13.7016 17.5088 13.1271C17.5088 12.5525 17.3956 11.9836 17.1758 11.4528C16.9559 10.922 16.6336 10.4397 16.2274 10.0335C15.8211 9.62723 15.3388 9.30497 14.808 9.0851C14.2772 8.86524 13.7083 8.75208 13.1338 8.75208C12.5593 8.75208 11.9903 8.86524 11.4595 9.0851C10.9287 9.30497 10.4465 9.62723 10.0402 10.0335C9.63394 10.4397 9.31168 10.922 9.09182 11.4528C8.87195 11.9836 8.75879 12.5525 8.75879 13.1271Z" stroke="#D9D5D3" stroke-linecap="round" stroke-linejoin="round"/>
<path d="M19.3823 19.3772L16.2256 16.2214" stroke="#D9D5D3" stroke-linecap="round" stroke-linejoin="round"/>
</g>
<defs>
<clipPath id="clip0_2156_1614">
<rect width="20" height="20" fill="white"/>
</clipPath>
</defs>
</svg>
