<svg width="25" height="25" viewBox="0 0 25 25" fill="none" xmlns="http://www.w3.org/2000/svg">
<g clip-path="url(#clip0_2180_1638)">
<path d="M9.1095 8.75C9.1095 10.7391 9.89968 12.6468 11.3062 14.0533C12.7127 15.4598 14.6204 16.25 16.6095 16.25C18.5986 16.25 20.5063 15.4598 21.9128 14.0533C23.3193 12.6468 24.1095 10.7391 24.1095 8.75C24.1095 6.76088 23.3193 4.85322 21.9128 3.4467C20.5063 2.04018 18.5986 1.25 16.6095 1.25C14.6204 1.25 12.7127 2.04018 11.3062 3.4467C9.89968 4.85322 9.1095 6.76088 9.1095 8.75Z" stroke="#D9D5D3" stroke-linecap="round" stroke-linejoin="round"/>
<path d="M7.2345 14.592C7.23452 14.86 7.31484 15.1219 7.4651 15.3438C7.61536 15.5657 7.82867 15.7375 8.0775 15.837L10.1415 16.663C10.4305 16.7793 10.6701 16.9926 10.8191 17.2662C10.9681 17.5398 11.0173 17.8568 10.9582 18.1627C10.8991 18.4686 10.7353 18.7444 10.4951 18.9428C10.2548 19.1412 9.95307 19.2498 9.6415 19.25H7.6095" stroke="#D9D5D3" stroke-linecap="round" stroke-linejoin="round"/>
<path d="M9.1095 20.75V19.25" stroke="#D9D5D3" stroke-linecap="round" stroke-linejoin="round"/>
<path d="M6.14049 9.36694C5.0152 9.85081 4.02554 10.6029 3.25802 11.5576C2.4905 12.5122 1.96848 13.6403 1.73759 14.8433C1.5067 16.0462 1.57397 17.2874 1.93351 18.4584C2.29306 19.6294 2.93393 20.6944 3.80012 21.5606C4.66631 22.4267 5.73146 23.0674 6.90246 23.4268C8.07346 23.7863 9.31467 23.8534 10.5176 23.6224C11.7205 23.3914 12.8486 22.8693 13.8032 22.1016C14.7577 21.334 15.5097 20.3443 15.9935 19.2189" stroke="#D9D5D3" stroke-linecap="round" stroke-linejoin="round"/>
<path d="M18.1095 5.75H16.0765C15.7649 5.75022 15.4632 5.85884 15.2229 6.05723C14.9827 6.25563 14.819 6.53143 14.7598 6.83734C14.7007 7.14325 14.7499 7.46019 14.8989 7.73382C15.0479 8.00745 15.2875 8.2207 15.5765 8.337L17.6405 9.163C17.9296 9.2793 18.1691 9.49255 18.3181 9.76618C18.4672 10.0398 18.5163 10.3567 18.4572 10.6627C18.3981 10.9686 18.2343 11.2444 17.9941 11.4428C17.7539 11.6412 17.4521 11.7498 17.1405 11.75H15.1095" stroke="#D9D5D3" stroke-linecap="round" stroke-linejoin="round"/>
<path d="M16.6095 5.75V4.25" stroke="#D9D5D3" stroke-linecap="round" stroke-linejoin="round"/>
<path d="M16.6095 13.25V11.75" stroke="#D9D5D3" stroke-linecap="round" stroke-linejoin="round"/>
</g>
<defs>
<clipPath id="clip0_2180_1638">
<rect width="24" height="24" fill="white" transform="translate(0.859497 0.5)"/>
</clipPath>
</defs>
</svg>
