<svg width="496" height="1" viewBox="0 0 496 1" fill="none" xmlns="http://www.w3.org/2000/svg">
<line y1="0.5" x2="16" y2="0.5" stroke="#D9D5D3"/>
<line x1="256" y1="0.5" x2="272" y2="0.5" stroke="#D9D5D3"/>
<line x1="128" y1="0.5" x2="144" y2="0.5" stroke="#D9D5D3"/>
<line x1="384" y1="0.5" x2="400" y2="0.5" stroke="#D9D5D3"/>
<line x1="64" y1="0.5" x2="80" y2="0.5" stroke="#D9D5D3"/>
<line x1="320" y1="0.5" x2="336" y2="0.5" stroke="#D9D5D3"/>
<line x1="192" y1="0.5" x2="208" y2="0.5" stroke="#D9D5D3"/>
<line x1="448" y1="0.5" x2="464" y2="0.5" stroke="#D9D5D3"/>
<line x1="32" y1="0.5" x2="48" y2="0.5" stroke="#D9D5D3"/>
<line x1="288" y1="0.5" x2="304" y2="0.5" stroke="#D9D5D3"/>
<line x1="160" y1="0.5" x2="176" y2="0.5" stroke="#D9D5D3"/>
<line x1="416" y1="0.5" x2="432" y2="0.5" stroke="#D9D5D3"/>
<line x1="96" y1="0.5" x2="112" y2="0.5" stroke="#D9D5D3"/>
<line x1="352" y1="0.5" x2="368" y2="0.5" stroke="#D9D5D3"/>
<line x1="224" y1="0.5" x2="240" y2="0.5" stroke="#D9D5D3"/>
<line x1="480" y1="0.5" x2="496" y2="0.5" stroke="#D9D5D3"/>
</svg>
