<svg width="24" height="24" viewBox="0 0 24 24" fill="none" xmlns="http://www.w3.org/2000/svg">
<path d="M17.3213 14.501C17.0009 14.3255 16.8018 13.9893 16.8018 13.624V10.3773C16.8018 10.012 17.0009 9.67578 17.3213 9.50027L20.9288 7.52417C21.5952 7.15911 22.4092 7.64135 22.4092 8.4012V15.6001C22.4092 16.3599 21.5952 16.8422 20.9288 16.4771L17.3213 14.501Z" stroke="#D9D5D3" stroke-linecap="round" stroke-linejoin="round"/>
<path d="M8.43066 8.53223H12.5604V12.6619" stroke="#D9D5D3" stroke-linecap="round" stroke-linejoin="round"/>
<path d="M5.91504 15.1943L12.438 8.67139" stroke="#D9D5D3" stroke-linecap="round" stroke-linejoin="round"/>
<path d="M3.59082 19.499C2.48625 19.499 1.59082 18.6036 1.59082 17.499V6.50195C1.59082 5.39738 2.48625 4.50195 3.59082 4.50195H14.8013C15.9058 4.50195 16.8013 5.39738 16.8013 6.50195V17.499C16.8013 18.6036 15.9058 19.499 14.8013 19.499H3.59082Z" stroke="#D9D5D3" stroke-linecap="round" stroke-linejoin="round"/>
</svg>
