<svg width="20" height="20" viewBox="0 0 20 20" fill="none" xmlns="http://www.w3.org/2000/svg">
<g clip-path="url(#clip0_2156_1697)">
<path d="M1.76049 6.73006C1.30758 6.73006 0.94043 6.36291 0.94043 5.91V1.71679C0.94043 1.26389 1.30758 0.896729 1.76049 0.896729H5.9537C6.40661 0.896729 6.77376 1.26389 6.77376 1.71679V5.91C6.77376 6.36291 6.40661 6.73006 5.9537 6.73006H1.76049Z" stroke="#D9D5D3" stroke-width="0.820062" stroke-linecap="round" stroke-linejoin="round"/>
<circle cx="16.418" cy="3.81348" r="3.125" stroke="#D9D5D3" stroke-width="0.833333"/>
<path d="M6.82129 3.81512L12.8385 3.81513" stroke="#D9D5D3" stroke-width="0.833333" stroke-linecap="round" stroke-linejoin="round"/>
<path d="M9.11361 15.9375L19.1062 15.9375" stroke="#D9D5D3" stroke-width="0.833333" stroke-linecap="round" stroke-linejoin="round"/>
<path d="M6.51562 13.2767L13.911 5.88119" stroke="#D9D5D3" stroke-width="0.833333" stroke-linecap="round" stroke-linejoin="round"/>
<path d="M15.8936 12.7246L19.1064 15.9375L15.8936 19.1504" stroke="#D9D5D3" stroke-width="0.833333" stroke-linecap="round" stroke-linejoin="round"/>
<path d="M5.18925 12.6396L5.19263 12.6409C5.63407 12.8199 6.02973 13.0826 6.36872 13.4215C6.70771 13.7605 6.97039 14.1562 7.14934 14.5976L7.15071 14.601C7.2308 14.7991 7.18305 15.026 7.03197 15.1771L6.65281 15.5563C6.44393 15.7651 6.44393 16.1038 6.65281 16.3127L7.03197 16.6918C7.18305 16.8429 7.2308 17.0698 7.15071 17.2679L7.14934 17.2713C6.97039 17.7127 6.70771 18.1084 6.36872 18.4474C6.02973 18.7864 5.63407 19.0491 5.19263 19.228L5.18925 19.2294C4.99117 19.3095 4.76424 19.2617 4.61317 19.1106L4.23401 18.7315C4.02513 18.5226 3.68646 18.5226 3.47758 18.7315L3.09842 19.1106C2.94734 19.2617 2.72042 19.3095 2.52234 19.2294L2.51896 19.228C2.07752 19.0489 1.68185 18.7864 1.34287 18.4474C1.00388 18.1084 0.741331 17.7127 0.562251 17.2713L0.560881 17.2679C0.480793 17.0698 0.528542 16.8429 0.679622 16.6918L1.05878 16.3127C1.26766 16.1038 1.26766 15.7651 1.05878 15.5563L0.67962 15.1771C0.528541 15.026 0.480792 14.7991 0.560882 14.601L0.562251 14.5976C0.741331 14.1562 1.00388 13.7605 1.34287 13.4215C1.68185 13.0826 2.07752 12.82 2.51896 12.6409L2.52234 12.6396C2.72042 12.5595 2.94734 12.6072 3.09842 12.7583L3.47758 13.1375C3.68646 13.3463 4.02513 13.3463 4.23401 13.1375L4.61316 12.7583C4.76424 12.6072 4.99117 12.5595 5.18925 12.6396Z" stroke="#D9D5D3" stroke-width="0.833333" stroke-linecap="square"/>
</g>
<defs>
<clipPath id="clip0_2156_1697">
<rect width="20" height="20" fill="white"/>
</clipPath>
</defs>
</svg>
