<svg width="24" height="25" viewBox="0 0 24 25" fill="none" xmlns="http://www.w3.org/2000/svg">
<rect x="5.68945" y="10" width="5" height="5" rx="2.5" transform="rotate(-180 5.68945 10)" stroke="#D9D5D3"/>
<rect x="14.6895" y="6" width="5" height="5" rx="2.5" transform="rotate(-180 14.6895 6)" stroke="#D9D5D3"/>
<rect x="14.6895" y="24" width="5" height="5" rx="2.5" transform="rotate(-180 14.6895 24)" stroke="#D9D5D3"/>
<rect x="14.6895" y="15" width="5" height="5" rx="2.5" transform="rotate(-180 14.6895 15)" stroke="#D9D5D3"/>
<rect x="23.6895" y="10" width="5" height="5" rx="2.5" transform="rotate(-180 23.6895 10)" stroke="#D9D5D3"/>
<rect x="23.6895" y="20" width="5" height="5" rx="2.5" transform="rotate(-180 23.6895 20)" stroke="#D9D5D3"/>
<rect x="5.68945" y="20" width="5" height="5" rx="2.5" transform="rotate(-180 5.68945 20)" stroke="#D9D5D3"/>
<path d="M12.1895 6.25928L12.1895 9.74118" stroke="#D9D5D3"/>
<path d="M12.1895 15.1279V18.8721" stroke="#D9D5D3"/>
<path d="M9.74744 13.8779L5.41731 16.3779" stroke="#D9D5D3"/>
<path d="M19.0621 8.99072L14.732 11.4907" stroke="#D9D5D3"/>
<path d="M9.95984 11.1226L5.62971 8.62256" stroke="#D9D5D3"/>
<path d="M18.8497 16.7461L14.5196 14.2461" stroke="#D9D5D3"/>
</svg>
