<svg width="20" height="20" viewBox="0 0 20 20" fill="none" xmlns="http://www.w3.org/2000/svg">
<g clip-path="url(#clip0_2156_1715)">
<path d="M3.125 19.2499L1.44667 17.2624C0.914064 16.5966 0.624247 15.7691 0.625001 14.9165V10.6099C0.625001 10.2783 0.756698 9.9604 0.991118 9.72598C1.22554 9.49156 1.54348 9.35986 1.875 9.35986C2.20652 9.35986 2.52446 9.49156 2.75888 9.72598C2.99331 9.9604 3.125 10.2783 3.125 10.6099V13.7349" stroke="#D9D5D3" stroke-width="0.833333" stroke-linecap="round" stroke-linejoin="round"/>
<path d="M6.87543 19.25V16.75C6.87576 16.0085 6.65623 15.2835 6.2446 14.6667L5.29293 13.2384C5.21166 13.103 5.10377 12.9856 4.97579 12.8932C4.84782 12.8007 4.70242 12.7352 4.54839 12.7007C4.39437 12.6661 4.23492 12.6631 4.07971 12.6919C3.92451 12.7207 3.77676 12.7808 3.64543 12.8684C3.40897 13.026 3.2382 13.2646 3.16516 13.5392C3.09213 13.8139 3.12185 14.1057 3.24876 14.36L4.37543 16.235" stroke="#D9D5D3" stroke-width="0.833333" stroke-linecap="round" stroke-linejoin="round"/>
<path d="M16.875 19.2499L18.5533 17.2657C19.0867 16.599 19.3765 15.7703 19.375 14.9165V10.6099C19.375 10.2783 19.2433 9.9604 19.0089 9.72598C18.7745 9.49156 18.4565 9.35986 18.125 9.35986C17.7935 9.35986 17.4755 9.49156 17.2411 9.72598C17.0067 9.9604 16.875 10.2783 16.875 10.6099V13.7349" stroke="#D9D5D3" stroke-width="0.833333" stroke-linecap="round" stroke-linejoin="round"/>
<path d="M13.125 19.2499V16.7499C13.1247 16.0083 13.3442 15.2833 13.7558 14.6665L14.7075 13.2399C14.7888 13.1045 14.8967 12.9871 15.0246 12.8947C15.1526 12.8023 15.298 12.7368 15.452 12.7022C15.6061 12.6676 15.7655 12.6646 15.9207 12.6934C16.0759 12.7223 16.2237 12.7823 16.355 12.8699C16.5915 13.0275 16.7622 13.2661 16.8353 13.5407C16.9083 13.8154 16.8786 14.1073 16.7517 14.3615L15.625 16.2365" stroke="#D9D5D3" stroke-width="0.833333" stroke-linecap="round" stroke-linejoin="round"/>
<path d="M12.0012 0.891129L12.0062 0.893182C12.6684 1.16161 13.2619 1.55563 13.7704 2.06411C14.2788 2.57259 14.6729 3.16609 14.9413 3.82824L14.9433 3.83332C15.0635 4.13044 14.9918 4.47082 14.7652 4.69744L14.1965 5.26618C13.8832 5.5795 13.8832 6.08749 14.1965 6.40082L14.7652 6.96955C14.9918 7.19617 15.0635 7.53655 14.9433 7.83367L14.9413 7.83875C14.6729 8.5009 14.2788 9.09441 13.7704 9.60288C13.2619 10.1114 12.6684 10.5054 12.0062 10.7738L12.0011 10.7759C11.704 10.896 11.3636 10.8244 11.137 10.5978L10.5683 10.029C10.255 9.7157 9.74697 9.7157 9.43365 10.029L8.86492 10.5978C8.6383 10.8244 8.29792 10.896 8.0008 10.7759L7.99572 10.7738C7.33357 10.5052 6.74007 10.1114 6.23159 9.60288C5.72311 9.09441 5.32928 8.50091 5.06066 7.83875L5.05861 7.83368C4.93847 7.53656 5.0101 7.19617 5.23672 6.96955L5.80545 6.40082C6.11877 6.08749 6.11877 5.5795 5.80545 5.26618L5.23672 4.69744C5.0101 4.47082 4.93847 4.13044 5.05861 3.83332L5.06066 3.82824C5.32928 3.16609 5.72311 2.57259 6.23159 2.06411C6.74007 1.55563 7.33357 1.1618 7.99572 0.893183L8.0008 0.891126C8.29792 0.770994 8.6383 0.842617 8.86492 1.06924L9.43365 1.63797C9.74698 1.95129 10.255 1.95129 10.5683 1.63797L11.137 1.06924C11.3636 0.84262 11.704 0.770996 12.0012 0.891129Z" stroke="#D9D5D3" stroke-width="0.833333" stroke-linecap="square"/>
<rect x="10.001" y="3.08944" width="3.88071" height="3.88071" rx="0.997547" transform="rotate(45 10.001 3.08944)" stroke="#D9D5D3" stroke-width="0.833333"/>
</g>
<defs>
<clipPath id="clip0_2156_1715">
<rect width="20" height="20" fill="white"/>
</clipPath>
</defs>
</svg>
