<svg width="25" height="25" viewBox="0 0 25 25" fill="none" xmlns="http://www.w3.org/2000/svg">
<path d="M23.6313 14.6563L22.7447 13.7697C21.9702 12.9952 21.9702 11.7378 22.7447 10.9633L24.152 9.556C24.7123 8.99571 24.8903 8.15362 24.592 7.41865C24.5904 7.41535 24.5887 7.41041 24.5871 7.40546C23.9229 5.76743 22.949 4.29913 21.69 3.04177C20.4326 1.7844 18.9643 0.810481 17.3263 0.146368C17.323 0.14472 17.3181 0.143073 17.3131 0.141425C16.5782 -0.155201 15.7361 0.0211263 15.1758 0.58142L13.7685 1.98874C12.9939 2.76327 11.7366 2.76327 10.962 1.98874L9.55472 0.58142C8.99772 0.0227742 8.15563 -0.155201 7.42066 0.143073C7.41572 0.14472 7.41242 0.146368 7.40748 0.148016C5.76944 0.812129 4.30114 1.78605 3.04378 3.04341C1.78642 4.30078 0.812494 5.76908 0.148382 7.40711C0.146734 7.41041 0.145086 7.41535 0.143438 7.42029C-0.153188 8.15527 0.02314 8.99736 0.583433 9.55765L1.99076 10.965C2.76528 11.7395 2.76528 12.9969 1.99076 13.7714L1.10418 14.658L0.583433 15.1787C0.02314 15.739 -0.154836 16.5811 0.143438 17.3161C0.145086 17.3194 0.146734 17.3243 0.148382 17.3292C0.812494 18.9673 1.78642 20.4356 3.04543 21.6929C4.30279 22.9503 5.77109 23.9259 7.40912 24.5883C7.41242 24.59 7.41736 24.5916 7.42231 24.5933C8.15728 24.8899 8.99937 24.7136 9.55966 24.1533L10.0804 23.6325L10.967 22.746C11.7415 21.9714 12.9989 21.9714 13.7734 22.746L14.66 23.6325L15.1807 24.1533C15.741 24.7136 16.5831 24.8916 17.3181 24.5933C17.323 24.5916 17.3263 24.59 17.3313 24.5883C18.9693 23.9242 20.4376 22.9503 21.695 21.6929C22.9523 20.4356 23.9279 18.9673 24.592 17.3292C24.5936 17.3243 24.5953 17.321 24.5969 17.3161C24.8936 16.5811 24.7172 15.739 24.1569 15.1787L23.6362 14.658L23.6313 14.6563ZM20.4722 12.4316C20.4689 12.9524 20.2596 13.4517 19.8905 13.8192L13.8195 19.8901C13.4521 20.2593 12.9527 20.4669 12.432 20.4718C12.4106 20.4718 12.3891 20.4718 12.3677 20.4718C12.3463 20.4718 12.3249 20.4718 12.3035 20.4718C11.7827 20.4685 11.285 20.2593 10.9159 19.8901L4.84496 13.8192C4.47747 13.4517 4.26819 12.9524 4.26324 12.4316C4.26324 12.4102 4.26324 12.3888 4.26324 12.3674C4.26324 12.3459 4.26324 12.3245 4.26324 12.3031C4.26654 11.7823 4.47582 11.2847 4.84496 10.9155L10.9159 4.84459C11.2834 4.47711 11.7827 4.26782 12.3035 4.26288C12.3249 4.26288 12.3463 4.26288 12.3677 4.26288C12.3891 4.26288 12.4106 4.26288 12.432 4.26288C12.9527 4.26617 13.4504 4.47546 13.8195 4.84459L19.8905 10.9155C20.258 11.2847 20.4673 11.7823 20.4722 12.3031C20.4722 12.3245 20.4722 12.3459 20.4722 12.3674C20.4722 12.3888 20.4722 12.4102 20.4722 12.4316Z" fill="#292626"/>
</svg>
