<svg width="25" height="25" viewBox="0 0 25 25" fill="none" xmlns="http://www.w3.org/2000/svg">
<rect x="16.0295" y="10.8237" width="7" height="7" rx="3.5" transform="rotate(-180 16.0295 10.8237)" stroke="#D9D5D3"/>
<path d="M19.7526 16.8407C20.3536 17.8068 20.1809 18.7587 19.5527 19.5083C18.906 20.2798 17.7743 20.8237 16.5295 20.8237H8.52954C7.28478 20.8237 6.15305 20.2798 5.50641 19.5083C4.87816 18.7587 4.70547 17.8068 5.30643 16.8407C6.80724 14.428 9.48124 12.8237 12.5295 12.8237C15.5778 12.8237 18.2518 14.428 19.7526 16.8407Z" stroke="#D9D5D3"/>
<path d="M16.5295 0.5V0.5C20.9478 0.5 24.5295 4.08172 24.5295 8.5V8.5" stroke="#D9D5D3"/>
<path d="M8.52979 24.5V24.5C4.11151 24.5 0.529785 20.9183 0.529785 16.5V16.5" stroke="#D9D5D3"/>
<path d="M8.52954 0.5V0.5C4.11126 0.5 0.529541 4.08172 0.529541 8.5V8.5" stroke="#D9D5D3"/>
<path d="M16.5295 24.5V24.5C20.9478 24.5 24.5295 20.9183 24.5295 16.5V16.5" stroke="#D9D5D3"/>
</svg>
