<svg width="25" height="25" viewBox="0 0 25 25" fill="none" xmlns="http://www.w3.org/2000/svg">
<g clip-path="url(#clip0_2180_1651)">
<path d="M2.77957 4.42296V12.037C2.77959 14.4436 3.50889 16.7937 4.87134 18.7776C6.23378 20.7615 8.1654 22.2859 10.4116 23.15L11.4526 23.55C12.1458 23.8166 12.9134 23.8166 13.6066 23.55L14.6476 23.15C16.8938 22.2859 18.8254 20.7615 20.1878 18.7776C21.5503 16.7937 22.2796 14.4436 22.2796 12.037V4.42296C22.2815 4.13644 22.2006 3.85547 22.0466 3.61384C21.8926 3.37222 21.6721 3.18022 21.4116 3.06096C18.6114 1.83875 15.5847 1.22162 12.5296 1.24996C9.47444 1.22162 6.44774 1.83875 3.64757 3.06096C3.38705 3.18022 3.16653 3.37222 3.01254 3.61384C2.85855 3.85547 2.77765 4.13644 2.77957 4.42296Z" stroke="#D9D5D3" stroke-linecap="round" stroke-linejoin="round"/>
<path d="M17.7295 11.75C17.5858 12.7458 17.1589 13.6794 16.4997 14.4396C15.8405 15.1997 14.9768 15.7544 14.0113 16.0377C13.0458 16.3209 12.0193 16.3208 11.0539 16.0372C10.0885 15.7537 9.22493 15.1987 8.56596 14.4384C7.90699 13.678 7.4804 12.7443 7.33695 11.7485C7.19351 10.7526 7.33926 9.73645 7.75686 8.82104C8.17446 7.90563 8.84631 7.1295 9.69243 6.58504C10.5386 6.04059 11.5233 5.75074 12.5295 5.75" stroke="#D9D5D3" stroke-linecap="round" stroke-linejoin="round"/>
<path d="M17.7796 7.06201L12.9936 11.848C12.8704 11.9709 12.7036 12.0399 12.5296 12.0399C12.3556 12.0399 12.1888 11.9709 12.0656 11.848L10.5656 10.343" stroke="#D9D5D3" stroke-linecap="round" stroke-linejoin="round"/>
</g>
<defs>
<clipPath id="clip0_2180_1651">
<rect width="24" height="24" fill="white" transform="translate(0.529541 0.5)"/>
</clipPath>
</defs>
</svg>
