<svg width="20" height="20" viewBox="0 0 20 20" fill="none" xmlns="http://www.w3.org/2000/svg">
<g clip-path="url(#clip0_2156_1665)">
<path d="M12.1301 2.97235H7.87012" stroke="#D9D5D3" stroke-linecap="round" stroke-linejoin="round"/>
<path d="M1.15332 19.5832V2.11984C1.15332 1.66809 1.36633 1.23484 1.74548 0.915399C2.12463 0.595962 2.63888 0.416504 3.17508 0.416504H16.8249C17.3611 0.416504 17.8754 0.595962 18.2545 0.915399C18.6337 1.23484 18.8467 1.66809 18.8467 2.11984V19.5832" stroke="#D9D5D3" stroke-linecap="round" stroke-linejoin="round"/>
<path d="M4.65731 7.37988H15.3467C15.3467 7.37988 15.8556 7.37988 15.8556 7.80572V10.3615C15.8556 10.3615 15.8556 10.7874 15.3467 10.7874H4.65731C4.65731 10.7874 4.14844 10.7874 4.14844 10.3615V7.80572C4.14844 7.80572 4.14844 7.37988 4.65731 7.37988Z" stroke="#D9D5D3" stroke-linecap="round" stroke-linejoin="round"/>
<path d="M4.6329 13.3423H15.3223C15.3223 13.3423 15.8312 13.3423 15.8312 13.7681V16.324C15.8312 16.324 15.8312 16.7498 15.3223 16.7498H4.6329C4.6329 16.7498 4.12402 16.7498 4.12402 16.324V13.7681C4.12402 13.7681 4.12402 13.3423 4.6329 13.3423Z" stroke="#D9D5D3" stroke-linecap="round" stroke-linejoin="round"/>
<path d="M6.25879 9.0835H7.66796" stroke="#D9D5D3" stroke-linecap="round" stroke-linejoin="round"/>
<path d="M6.25879 15.0464H8.56629" stroke="#D9D5D3" stroke-linecap="round" stroke-linejoin="round"/>
</g>
<defs>
<clipPath id="clip0_2156_1665">
<rect width="20" height="20" fill="white"/>
</clipPath>
</defs>
</svg>
